<?xml version="1.0" standalone="no"?>
<!DOCTYPE svg PUBLIC "-//W3C//DTD SVG 20010904//EN"
 "http://www.w3.org/TR/2001/REC-SVG-20010904/DTD/svg10.dtd">
<svg version="1.0" xmlns="http://www.w3.org/2000/svg"
 width="280.000000pt" height="521.000000pt" viewBox="0 0 280.000000 521.000000"
 preserveAspectRatio="xMidYMid meet">

<g transform="translate(0.000000,521.000000) scale(0.100000,-0.100000)"
fill="#eab308" stroke="none">
<path d="M1301 5184 c-158 -42 -284 -169 -326 -329 -8 -33 -15 -76 -15 -96 l0
-36 -161 -7 c-185 -7 -263 -27 -384 -98 -84 -50 -217 -181 -264 -260 -80 -138
-117 -284 -106 -429 8 -116 26 -185 81 -298 45 -94 46 -95 355 -407 l311 -312
-18 -49 c-11 -32 -15 -59 -10 -78 7 -28 63 -90 100 -111 18 -9 16 -12 -20 -30
-51 -26 -88 -93 -79 -144 19 -99 73 -130 233 -130 l112 0 0 -394 0 -395 -297
-3 c-277 -3 -300 -4 -332 -23 -65 -38 -88 -117 -53 -184 29 -59 62 -75 160
-81 l87 -5 -38 -24 c-42 -26 -77 -85 -77 -129 0 -18 15 -51 35 -81 l35 -51
-43 0 c-51 0 -123 -34 -150 -71 -29 -40 -33 -107 -8 -147 25 -38 76 -72 111
-72 25 0 26 -2 26 -74 l0 -75 -42 -10 c-68 -17 -123 -104 -107 -170 10 -45 51
-89 91 -101 21 -6 155 -10 320 -10 l282 0 0 -32 c0 -46 43 -112 85 -132 31
-15 63 -17 224 -14 203 3 221 8 258 65 17 25 18 95 21 1120 l3 1093 111 0 c91
0 119 4 153 20 46 22 85 80 85 126 0 41 -41 103 -85 129 l-37 23 36 17 c71 34
105 121 72 185 l-16 32 313 322 c335 344 349 362 403 521 24 72 27 94 27 225
1 125 -2 154 -22 209 -86 246 -255 422 -482 503 -70 24 -99 28 -243 34 l-163
7 -6 70 c-22 262 -296 458 -546 391z m192 -308 c38 -25 71 -99 64 -143 -11
-68 -85 -133 -151 -133 -36 0 -102 35 -121 64 -44 67 -38 140 17 193 55 52
128 60 191 19z m595 -456 c98 -13 174 -51 248 -124 133 -134 175 -314 112
-485 -41 -111 -126 -203 -241 -259 -62 -31 -70 -32 -185 -32 -66 0 -132 4
-146 10 l-26 10 44 65 c87 126 125 317 92 459 -21 89 -64 178 -121 251 -25 32
-45 62 -45 66 0 12 113 47 155 48 22 0 73 -4 113 -9z m-1141 -16 c26 -9 49
-18 51 -19 2 -2 -17 -29 -42 -60 -97 -118 -140 -240 -140 -390 1 -142 37 -245
130 -372 16 -22 15 -23 -11 -33 -14 -5 -79 -10 -143 -10 -114 0 -120 1 -190
35 -142 68 -236 192 -262 345 -36 211 98 431 307 506 55 19 240 18 300 -2z
m554 -180 c42 -12 66 -28 109 -72 76 -78 94 -119 94 -212 0 -58 -6 -86 -24
-125 -90 -186 -323 -232 -475 -94 -126 116 -135 291 -19 418 81 90 194 121
315 85z m120 -895 c60 -34 162 -75 233 -95 l59 -16 -129 -129 -129 -129 -245
0 -245 0 -125 125 c-75 75 -121 128 -115 133 6 5 49 21 97 36 47 15 114 44
149 64 l63 37 172 -1 c162 -1 173 -2 215 -25z"/>
</g>
</svg>
